<svg width="128" height="128" viewBox="0 0 128 128" fill="none" xmlns="http://www.w3.org/2000/svg">
<rect width="128" height="128" fill="#C4C4C4"/>
<path d="M45.2407 24.824C50.0407 24.824 53.9287 26.288 56.9047 29.216C59.8807 32.096 61.3687 36.272 61.3687 41.744V65H54.8887V42.68C54.8887 38.744 53.9047 35.744 51.9367 33.68C49.9687 31.568 47.2807 30.512 43.8727 30.512C40.4167 30.512 37.6567 31.592 35.5927 33.752C33.5767 35.912 32.5687 39.056 32.5687 43.184V65H26.0167V25.544H32.5687V31.16C33.8647 29.144 35.6167 27.584 37.8247 26.48C40.0807 25.376 42.5527 24.824 45.2407 24.824Z" fill="black"/>
<path d="M35.6055 70.208C35.6055 63.552 37.0455 57.632 39.9255 52.448C42.8055 47.2 46.8055 43.136 51.9255 40.256C57.1095 37.312 62.9655 35.84 69.4935 35.84C77.4935 35.84 84.3415 37.952 90.0375 42.176C95.7335 46.4 99.5415 52.16 101.462 59.456H83.4135C82.0695 56.64 80.1495 54.496 77.6535 53.024C75.2215 51.552 72.4375 50.816 69.3015 50.816C64.2455 50.816 60.1495 52.576 57.0135 56.096C53.8775 59.616 52.3095 64.32 52.3095 70.208C52.3095 76.096 53.8775 80.8 57.0135 84.32C60.1495 87.84 64.2455 89.6 69.3015 89.6C72.4375 89.6 75.2215 88.864 77.6535 87.392C80.1495 85.92 82.0695 83.776 83.4135 80.96H101.462C99.5415 88.256 95.7335 94.016 90.0375 98.24C84.3415 102.4 77.4935 104.48 69.4935 104.48C62.9655 104.48 57.1095 103.04 51.9255 100.16C46.8055 97.216 42.8055 93.152 39.9255 87.968C37.0455 82.784 35.6055 76.864 35.6055 70.208Z" fill="#0C61E1"/>
</svg>
